<svg width="38" height="42" viewBox="0 0 38 42" fill="none" xmlns="http://www.w3.org/2000/svg">
<path d="M2.64367 5.65229L3.50497 6.31762L4.55278 6.40021L3.88745 7.26151L3.73226 8.33873L2.94356 7.64398L1.86634 7.48879L2.56109 6.7001L2.64367 5.65229Z" fill="#FFA500"/>
<path d="M20.1071 7.02869L20.9684 7.69402L22.0162 7.7766L21.3509 8.6379L21.1957 9.71513L20.407 9.02038L19.3298 8.86519L20.0245 8.0765L20.1071 7.02869Z" fill="#FFA500"/>
<path d="M15.2886 3.06424C13.6399 5.2538 13.1293 8.16563 14.2179 10.8521C15.3065 13.5385 17.7295 15.3461 20.4079 15.6978C19.5541 16.7199 18.4669 17.5831 17.16 18.1127C13.1667 19.7309 8.57541 17.7876 6.95724 13.7942C5.33907 9.80084 7.2824 5.20959 11.2758 3.59142C12.5827 3.06184 13.9347 2.8521 15.2886 3.06424Z" fill="#FFA500"/>
<path d="M2.64367 5.65229L3.50497 6.31762L4.55278 6.40021L3.88745 7.26151L3.73226 8.33873L2.94356 7.64398L1.86634 7.48879L2.56109 6.7001L2.64367 5.65229Z" stroke="#FFA500" stroke-width="2" stroke-linejoin="round"/>
<path d="M20.1071 7.02869L20.9684 7.69402L22.0162 7.7766L21.3509 8.6379L21.1957 9.71513L20.407 9.02038L19.3298 8.86519L20.0245 8.0765L20.1071 7.02869Z" stroke="#FFA500" stroke-width="2" stroke-linejoin="round"/>
<path d="M15.2886 3.06424C13.6399 5.2538 13.1293 8.16563 14.2179 10.8521C15.3065 13.5385 17.7295 15.3461 20.4079 15.6978C19.5541 16.7199 18.4669 17.5831 17.16 18.1127C13.1667 19.7309 8.57541 17.7876 6.95724 13.7942C5.33907 9.80084 7.2824 5.20959 11.2758 3.59142C12.5827 3.06184 13.9347 2.8521 15.2886 3.06424Z" stroke="#FFA500" stroke-width="2" stroke-linejoin="round"/>
<path fill-rule="evenodd" clip-rule="evenodd" d="M37.7 21.4C37.7 16.8 34 13.2 29.5 13.2C28.5 13.2 27.6 13.4 26.7 13.7C26.4 10.3 23.6 7.5 20.1 7.5C16.4 7.5 13.4 10.5 13.4 14.2C13.4 15 13.6 15.8 13.8 16.5C13.5 16.4 13.1 16.4 12.8 16.4C9.1 16.4 6.1 19.4 6.1 23.1C6.1 26.7 9 29.7 12.6 29.8H29.8C34.2 29.3 37.7 25.8 37.7 21.4ZM18.0912 31.9581C18.635 32.054 18.9982 32.5727 18.9023 33.1166L18.6497 34.549C18.5538 35.0929 18.0352 35.4561 17.4913 35.3602C16.9474 35.2643 16.5842 34.7456 16.6801 34.2017L16.9327 32.7693C17.0286 32.2254 17.5473 31.8622 18.0912 31.9581ZM16.9545 38.4041C17.4984 38.5 17.8616 39.0187 17.7657 39.5626L17.5131 40.995C17.4172 41.5389 16.8986 41.9021 16.3547 41.8062C15.8108 41.7103 15.4476 41.1916 15.5435 40.6477L15.7961 39.2153C15.892 38.6714 16.4107 38.3082 16.9545 38.4041ZM25.1585 32.1888C25.2544 31.6449 24.8912 31.1263 24.3473 31.0304C23.8034 30.9345 23.2847 31.2977 23.1888 31.8415L22.9363 33.274C22.8404 33.8179 23.2035 34.3365 23.7474 34.4324C24.2913 34.5284 24.81 34.1652 24.9059 33.6213L25.1585 32.1888ZM24.0218 38.6349C24.1178 38.091 23.7546 37.5723 23.2107 37.4764C22.6668 37.3805 22.1481 37.7437 22.0522 38.2876L21.7997 39.72C21.7038 40.2639 22.0669 40.7826 22.6108 40.8785C23.1547 40.9744 23.6734 40.6112 23.7693 40.0673L24.0218 38.6349Z" fill="#91C0F8"/>
</svg>
