<svg width="64" height="64" viewBox="0 0 64 64" fill="none" xmlns="http://www.w3.org/2000/svg">
<path d="M39.42 3.50365C39.42 1.5687 38.5058 0 37.3782 0H2.04182C0.914192 0 0 1.5687 0 3.50365C0 5.4386 0.914192 7.0073 2.04182 7.0073H37.3782C38.5058 7.0073 39.42 5.4386 39.42 3.50365Z" fill="black"/>
<path d="M57.1161 14.4818H15.9262C14.7986 14.4818 13.8844 16.0505 13.8844 17.9854C13.8844 19.9203 14.7986 21.489 15.9262 21.489H57.1161C58.2437 21.489 59.1579 19.9203 59.1579 17.9854C59.1579 16.0505 58.2437 14.4818 57.1161 14.4818Z" fill="black"/>
<path d="M61.9582 34.5693C63.0858 34.5693 64 33.0006 64 31.0657C64 29.1307 63.0858 27.562 61.9582 27.562H20.5544C19.4267 27.562 18.5125 29.1307 18.5125 31.0657C18.5125 33.0006 19.4267 34.5693 20.5544 34.5693H61.9582Z" fill="black"/>
<path d="M53.1751 42.0438H11.8426C10.7149 42.0438 9.80075 43.6125 9.80075 45.5474C9.80075 47.4824 10.7149 49.0511 11.8426 49.0511H53.1751C54.3027 49.0511 55.2169 47.4824 55.2169 45.5474C55.2169 43.6125 54.3027 42.0438 53.1751 42.0438Z" fill="black"/>
<path d="M30.271 56.9927H2.85855C1.73092 56.9927 0.816727 58.5614 0.816727 60.4964C0.816727 62.4313 1.73092 64 2.85855 64H30.2707C31.3983 64 32.3125 62.4313 32.3125 60.4964C32.3128 58.5614 31.3986 56.9927 30.271 56.9927Z" fill="black"/>
</svg>
